<svg width="80" height="50" viewBox="0 0 80 50" fill="none" xmlns="http://www.w3.org/2000/svg">
<g clip-path="url(#clip0_2_63)">
<path d="M61.283 27.4C68.7858 27.4 74.8679 21.3558 74.8679 13.9C74.8679 6.44416 68.7858 0.400002 61.283 0.400002C53.7803 0.400002 47.6981 6.44416 47.6981 13.9C47.6981 21.3558 53.7803 27.4 61.283 27.4Z" fill="white"/>
<path d="M54.239 37.5C54.3396 37.5 54.4403 37.5 54.6415 37.5C55.044 37.5 55.2453 37.5 55.4465 37.5C55.6478 37.5 55.9497 37.5 56.3522 37.5C56.4528 37.5 56.5535 37.5 56.6541 37.5V37.8C56.3522 37.8 56.1509 37.8 56.0503 37.9C55.9497 38 55.9497 38.2 55.9497 38.4V42C55.9497 42.3 55.9497 42.5 56.0503 42.5C56.1509 42.6 56.3522 42.6 56.6541 42.6V42.9C56.3522 42.9 56.0503 42.9 55.9497 42.9C55.7484 42.9 55.6478 42.9 55.5472 42.9C55.4465 42.9 55.2453 42.9 55.1447 42.9C54.9434 42.9 54.7421 42.9 54.3396 42.9V42.6C54.6415 42.6 54.8428 42.6 54.9434 42.5C55.044 42.4 55.044 42.2 55.044 42V38.4C55.044 38.1 55.044 37.9 54.9434 37.9C54.8428 37.8 54.6415 37.8 54.3396 37.8V37.5H54.239Z" fill="white"/>
<path d="M57.2579 37.5C57.4591 37.5 57.6604 37.5 57.761 37.5C57.8616 37.5 58.0629 37.5 58.1635 37.5C58.2642 37.5 58.3648 37.5 58.4654 37.5C58.566 37.5 58.7673 37.5 58.9686 37.5L61.9874 41.6V38.7C61.9874 38.3 61.9874 38.1 61.8868 38C61.7862 37.9 61.5849 37.9 61.283 37.9V37.6C61.4843 37.6 61.6855 37.6 61.7862 37.6C61.8868 37.6 62.0881 37.6 62.1887 37.6C62.2893 37.6 62.3899 37.6 62.4906 37.6C62.5912 37.6 62.7925 37.6 62.9937 37.6V37.9C62.6918 37.9 62.4906 38 62.4906 38C62.3899 38.1 62.3899 38.3 62.3899 38.7V41C62.3899 41.5 62.3899 41.9 62.3899 42.2C62.3899 42.5 62.3899 42.9 62.3899 43.2H61.9874L58.3648 38.4V42.1C58.3648 42.5 58.3648 42.7 58.4654 42.8C58.566 42.9 58.7673 42.9 59.0692 42.9V43.2C58.8679 43.2 58.6667 43.2 58.4654 43.2C58.3648 43.2 58.1635 43.2 58.0629 43.2C57.9623 43.2 57.9623 43.2 57.761 43.2C57.6604 43.2 57.4591 43.2 57.1572 43.2V42.9C57.4591 42.9 57.6604 42.9 57.761 42.8C57.8616 42.7 57.8616 42.5 57.8616 42.1V38.6C57.8616 38.3 57.8616 38.1 57.761 38.1C57.6604 38 57.4591 38 57.2579 38H57.1572L57.2579 37.5Z" fill="white"/>
<path d="M63.5975 37.5C63.6981 37.5 63.7987 37.5 64 37.5C64.1006 37.5 64.3019 37.5 64.6038 37.5C64.7044 37.5 65.0063 37.5 65.3082 37.5C65.6101 37.5 65.912 37.5 66.1132 37.5C67.0189 37.5 67.8239 37.7 68.327 38.2C68.8302 38.7 69.1321 39.4 69.1321 40.3C69.1321 41.2 68.8302 41.9 68.327 42.3C67.8239 42.8 67.1195 43 66.1132 43C65.912 43 65.7107 43 65.4088 43C65.1069 43 64.805 43 64.7044 43C64.5032 43 64.3019 43 64.2013 43C64 43 63.8994 43 63.6981 43V42.7C64 42.7 64.2013 42.7 64.2013 42.6C64.3019 42.5 64.3019 42.3 64.3019 42.1V38.5C64.3019 38.2 64.3019 38 64.2013 38C64.1006 37.9 63.8994 37.9 63.6981 37.9V37.5H63.5975ZM65.2076 37.8V42.7H65.7107C66.0126 42.7 66.3145 42.7 66.5157 42.6C66.717 42.6 66.8176 42.5 67.0189 42.4C67.3208 42.2 67.522 41.9 67.7233 41.6C67.8239 41.2 67.9245 40.7 67.9245 40.2C67.9245 39.3 67.7233 38.7 67.4214 38.3C67.1195 37.9 66.5157 37.7 65.7107 37.7H65.2076V37.8Z" fill="white"/>
<path d="M69.6352 37.5C69.7359 37.5 69.8365 37.5 70.0377 37.5C70.4403 37.5 70.6415 37.5 70.8428 37.5C71.044 37.5 71.3459 37.5 71.7484 37.5C71.8491 37.5 71.9497 37.5 72.0503 37.5V37.8C71.7484 37.8 71.5472 37.8 71.4465 37.9C71.3459 38 71.3459 38.2 71.3459 38.4V42C71.3459 42.3 71.3459 42.5 71.4465 42.5C71.5472 42.6 71.7484 42.6 72.0503 42.6V42.9C71.7484 42.9 71.4465 42.9 71.3459 42.9C71.1447 42.9 71.044 42.9 70.9434 42.9C70.8428 42.9 70.6415 42.9 70.5409 42.9C70.3396 42.9 70.1384 42.9 69.7359 42.9V42.6C70.0377 42.6 70.239 42.6 70.3396 42.5C70.4403 42.4 70.4403 42.2 70.4403 42V38.4C70.4403 38.1 70.4403 37.9 70.3396 37.9C70.239 37.8 70.0377 37.8 69.7359 37.8V37.5H69.6352Z" fill="white"/>
<path d="M74.9686 37.4H75.3711L77.1824 42.3C77.283 42.5 77.283 42.6 77.3836 42.6C77.4843 42.7 77.5849 42.7 77.7862 42.7V43C77.4843 43 77.1824 43 77.0818 43C76.9811 43 76.7799 43 76.6792 43C76.5786 43 76.478 43 76.2767 43C76.0755 43 75.8742 43 75.5723 43V42.7C75.7736 42.7 75.8742 42.7 75.9748 42.6C76.0755 42.6 76.0755 42.5 76.0755 42.4V42.3V42.2L75.673 41H74.0629L73.6604 42C73.6604 42 73.6604 42 73.6604 42.1C73.5597 42.3 73.5597 42.5 73.5597 42.5C73.5597 42.6 73.5597 42.7 73.6604 42.7C73.761 42.7 73.8616 42.8 74.0629 42.8V43.1C73.9623 43.1 73.761 43.1 73.6604 43.1C73.5597 43.1 73.4591 43.1 73.3585 43.1C73.2579 43.1 73.1572 43.1 73.0566 43.1C72.956 43.1 72.8553 43.1 72.6541 43.1V42.8C72.8553 42.8 72.956 42.8 73.0566 42.7C73.1572 42.6 73.1572 42.5 73.2579 42.3L74.9686 37.4ZM74.7673 38.7L74.0629 40.8H75.4717L74.7673 38.7Z" fill="white"/>
<path fill-rule="evenodd" clip-rule="evenodd" d="M40.5535 46.7L40.0503 46.3L39.7484 46.1C39.6478 46.1 39.6478 46 39.4465 46V46.2C39.4465 46.6 39.3459 47.1 39.1447 47.4C39.1447 47.5 39.044 47.6 39.044 47.7C39.044 47.8 38.9434 47.9 38.8428 48C38.7421 48.1 38.4403 48.4 38.3396 48.5C38.239 48.5 38.239 48.6 38.239 48.6C38.1384 48.6 38.1384 48.7 38.0377 48.7C37.9371 48.8 37.8365 48.8 37.7359 48.9C37.6352 48.9 37.5346 49 37.434 49C37.3333 49 37.2327 49 37.1321 49.1C37.0314 49.1 36.6289 49.2 36.5283 49.2C36.327 49.2 36.327 49.2 36.2264 49.2C36.0252 49.2 36.0252 49.2 35.9245 49.2H35.6226H35.522C35.3208 49.2 35.2201 49.2 35.0189 49.2C34.9182 49.2 34.6164 49.2 34.5157 49.1C34.4151 49.1 34.2138 49.1 34.0126 49C33.912 49 33.6101 49 33.6101 48.9C33.5094 48.9 33.1069 48.8 33.1069 48.8C33.0063 48.8 32.805 48.7 32.6038 48.7C32.4025 48.7 32.3019 48.6 32.1006 48.6C32 48.6 31.6981 48.5 31.5975 48.5C31.4969 48.4 31.2956 48.4 31.0943 48.4C30.9937 48.4 30.9937 48.4 30.8931 48.3L30.6918 48.2C30.5912 48.2 30.3899 48.1 30.1887 48.1C30.0881 48.1 29.8868 48 29.7862 48C29.6855 48 29.3836 47.8 29.283 47.8C29.1824 47.8 28.9811 47.7 28.7799 47.6C28.478 47.5 28.0755 47.4 27.7736 47.2C27.1698 47 26.4654 46.7 25.9623 46.4C25.3585 46.1 24.7547 45.9 24.1509 45.6C24.0503 45.5 23.8491 45.5 23.7484 45.4C23.2453 45 23.1447 45 22.9434 44.9C22.8428 44.8 22.5409 44.7 22.4403 44.7C22.4403 44.7 22.1384 44.5 22.0377 44.5C22.0377 44.5 21.9371 44.4 21.8365 44.4C21.7359 44.4 21.7358 44.3 21.6352 44.3C21.5346 44.3 21.434 44.2 21.434 44.2L21.2327 44.1C21.1321 44 20.327 43.5 20.327 43.5L20.7296 43.3L20.9308 43.1C21.0314 43.1 21.1321 42.9 21.2327 42.9C21.2327 42.9 21.434 42.7 21.434 42.6C21.434 42.6 21.5346 42.5 21.5346 42.4C21.5346 42.4 21.6352 42.3 21.6352 42.2C21.7358 42 21.7359 42 21.8365 41.8C21.9371 41.5 22.0377 41.2 22.0377 40.9V40.6V40.5V40.4C22.0377 40.2 21.9371 39.7 21.8365 39.5C21.7359 39.4 21.7358 39.2 21.6352 39.1C21.6352 39 21.434 38.8 21.3333 38.8C21.3333 38.8 21.3333 38.7 21.2327 38.7L20.7296 38.3L20.5283 38.1H20.6289H21.2327H25.8616V38.7V38.9V39.1V39.9L24.956 39.8C24.956 39.8 24.956 39.8 24.8553 39.8H24.6541H24.5535H24.3522C23.9497 39.8 23.4465 39.9 23.044 40.2C22.7421 40.4 22.7421 40.5 22.6415 40.8C22.6415 40.9 22.5409 41.3 22.5409 41.5C22.5409 41.7 22.5409 41.8 22.5409 41.9C22.5409 42 22.6415 42.2 22.6415 42.3C22.6415 42.5 22.8428 42.9 22.9434 43C23.044 43.2 23.2453 43.5 23.3459 43.7C23.4465 43.8 23.8491 44.3 23.9497 44.3L24.4528 44.7L24.8553 45.1C24.8553 45.1 25.0566 45.2 25.0566 45.3C25.1572 45.3 25.2579 45.4 25.2579 45.4C25.3585 45.4 25.761 45.6 25.761 45.5C25.761 45.5 25.6604 45.3 25.5597 45.3L25.1572 44.9C25.1572 44.9 24.8553 44.7 24.8553 44.6L24.4528 44.4L24.3522 44.3C24.3522 44.3 24.3522 44.2 24.2516 44.2C24.1509 44.1 24.1509 44.1 24.0503 44C23.9497 43.9 23.8491 43.7 23.8491 43.5C23.7484 43.1 23.6478 42.8 23.6478 42.4C23.6478 41.2 24.5535 40.9 25.5597 40.9H25.6604H25.761H25.8616V42.6V43.6C25.8616 43.7 25.761 43.8 25.9623 44C25.9623 44 26.2642 44.3 26.3648 44.3L26.8679 44.7C26.9686 44.7 27.0692 44.9 27.1698 44.8V42.7V42.6V42.5V41.6V41.5V41.1V41H27.2704C27.2704 41 27.3711 41 27.3711 40.9C27.3711 40.9 27.3711 40.9 27.3711 40.8C27.2704 40.8 27.2704 40.7 27.1698 40.7V40.3V38H28.478H29.283C29.3836 38 29.3836 37.9 29.3836 37.8L28.8805 37C28.7799 36.9 28.7799 36.9 28.6792 36.9H25.0566C24.956 36.9 24.956 36.9 24.956 36.9C24.7547 36.9 24.6541 36.9 24.4528 36.9C24.4528 36.9 23.8491 36.9 22.9434 36.9C20.2264 36.9 14.3899 36.9 12.6792 36.9H10.0629V37C10.0629 37 10.4654 37.4 10.566 37.4L11.0692 37.8L11.1698 37.9H13.1824V39.2V40C13.1824 40 12.9811 40 12.8805 40C12.7799 40 12.6792 40 12.5786 40C12.3774 40 12.0755 40 11.9748 40H11.7736C11.7736 39.8 11.673 39.7 11.5723 39.5C11.5723 39.4 11.4717 39.3 11.4717 39.2C11.4717 39.1 11.3711 39 11.3711 39C11.2704 38.9 11.1698 38.7 11.0692 38.6C11.0692 38.5 10.9686 38.5 10.8679 38.4L10.7673 38.3C10.7673 38.3 10.6667 38.3 10.6667 38.2L9.96226 37.6C9.86164 37.6 9.55975 37.2 9.45912 37.2L9.25786 37.1C9.15723 37.1 9.15723 37 9.0566 37C8.95598 37 8.75472 36.9 8.65409 36.9H8.75472H8.65409H8.3522C8.25157 36.9 8.15094 37 8.05032 37C7.94969 37.1 7.84906 37.1 7.74843 37.2C7.54717 37.3 7.44654 37.6 7.44654 37.9L6.44025 37H6.33962C5.93711 37 5.53459 37 5.43396 37C5.2327 37 5.03145 37 4.83019 37C4.62893 37 4.42767 37 4.12579 37C3.72327 37 3.22013 37 2.81761 37H2.31447C2.21384 37 2.31447 37 2.21384 37V37.1C2.21384 37.1 2.51572 37.4 2.61635 37.4L3.1195 37.8L3.22013 37.9C3.32075 37.9 3.32075 38 3.52201 38C3.62264 38 3.8239 38 3.92453 38C4.22642 38 4.5283 38 4.72956 38H5.13208H6.64151H6.84277C6.9434 38 7.34591 38 7.34591 38C7.34591 38 7.44654 38.1 7.44654 38.2C7.44654 38.2 7.54717 38.3 7.54717 38.4C7.6478 38.5 8.05032 39 8.15094 39L8.65409 39.4L8.95598 39.6C9.0566 39.7 9.15723 39.7 9.25786 39.8C9.45912 39.9 9.76101 40 9.96226 40.1L9.45912 40.3C9.35849 40.3 9.0566 40.5 8.85535 40.5C8.55346 40.6 8.15094 41 8.05032 41.3C7.94969 41.7 8.05032 42 8.15094 42.3C8.25157 42.5 8.3522 42.7 8.45283 42.8C8.45283 42.9 8.75472 43.2 8.85535 43.2L9.35849 43.6L9.86164 44C9.96227 44 9.96226 44.1 10.0629 44.1C10.1635 44.1 10.1635 44.2 10.2642 44.2C10.3648 44.3 10.566 44.3 10.6667 44.3C10.9686 44.3 11.2704 44 11.4717 43.8C11.673 43.6 11.7736 43.3 11.7736 43C11.8742 42.7 11.8742 42.4 11.8742 42.1C11.8742 41.9 11.8742 41.4 11.8742 41.2V40.9H12.2767H12.3774H12.7799H12.8805V43.1V43.2V43.3L13.283 43.7L13.7862 44.1C13.8868 44.1 13.8868 44.2 13.8868 44.2H13.9874C13.9874 44.2 13.9874 44.2 13.9874 44.1V42.4V41C14.0881 41 14.2893 41.1 14.3899 41.1C14.4906 41.1 14.7925 41.3 14.8931 41.3V41.4V41.5V41.6V41.7V41.8V42.1V42.8V43.2C14.8931 43.3 14.8931 43.4 14.8931 43.5C14.8931 43.6 14.8931 43.6 14.9937 43.6L15.0943 43.7L15.5975 44.1C15.6981 44.1 16 44.4 16 44.4H16.1006V44.3V44.2V43.4V43.3V43V42.9C16.1006 42.8 16.1006 42.6 16.1006 42.6C16.1006 42.5 16.1006 42.5 16.1006 42.4C16.1006 42.2 16.1006 42.1 16.1006 41.9C16.1006 41.7 16.1006 41.6 16.1006 41.4C16.1006 41.3 16.1006 41.1 16.1006 40.8V40.7V40.4V40.3V40V39.9V39.6V39.5V39.1V39V38.2L16 38.1H16.1006H17.7107C17.6101 38.2 17.6101 38.5 17.6101 38.6V38.7C17.6101 38.8 17.6101 38.9 17.7107 39.1C17.7107 39.2 17.8113 39.4 17.8113 39.5C17.8113 39.6 18.0126 39.8 18.0126 39.8L18.3145 40.1L18.8176 40.5C18.9182 40.5 18.9182 40.6 18.9182 40.6C19.0189 40.7 19.0189 40.6 19.1195 40.6C18.9182 40.2 18.717 39.9 18.717 39.6V39.5C18.717 39.4 18.717 39.1 18.8176 39C18.8176 38.9 19.0189 38.6 19.1195 38.6C19.1195 38.6 19.4214 38.5 19.4214 38.4C19.522 38.4 19.6226 38.3 19.7233 38.3H19.9245C20.0252 38.3 20.1258 38.3 20.2264 38.4C20.2264 38.5 20.327 38.6 20.327 38.7C20.4277 38.9 20.4277 39.1 20.4277 39.3C20.4277 39.6 20.4277 39.8 20.4277 40C20.4277 40.1 20.327 40.2 20.327 40.3C20.327 40.4 20.2264 40.5 20.2264 40.6C20.1258 40.8 20.0252 41 19.9245 41.1C19.8239 41.3 19.6226 41.5 19.4214 41.6C19.2201 41.8 19.1195 41.9 18.9182 42C18.8176 42.1 18.717 42.1 18.6164 42.2C18.5157 42.2 18.5157 42.3 18.4151 42.3C18.3145 42.3 18.3145 42.4 18.2138 42.4C18.2138 42.4 17.6101 42.1 17.5094 42C17.4088 41.9 16.9057 41.7 16.7044 41.7C16.6038 41.7 16.6038 41.7 16.5031 41.8L16.4025 41.9C16.4025 41.9 16.4025 42 16.3019 42C16.2013 42.2 16.1006 42.3 16.1006 42.4V42.5C16.1006 42.6 16.2013 42.7 16.3019 42.7L16.805 43.1C16.9057 43.1 17.2075 43.4 17.2075 43.5C17.3082 43.6 17.6101 43.7 17.7107 43.7H17.8113C18.1132 43.7 18.8176 43.6 19.2201 43.4L20.7296 44.3C20.7296 44.3 21.5346 44.8 21.6352 44.8L22.0377 45C22.1384 45 22.4403 45.2 22.4403 45.2C22.7421 45.4 23.044 45.5 23.3459 45.6C23.6478 45.7 23.9497 45.9 24.2516 46C24.5535 46.2 24.8553 46.3 25.1572 46.4C25.4591 46.5 25.761 46.7 26.0629 46.8C26.3648 47 26.7673 47.1 26.9686 47.2C27.2704 47.3 27.5723 47.4 27.8742 47.6C28.0755 47.7 28.1761 47.7 28.3774 47.8C28.478 47.9 28.6792 47.9 28.8805 48C28.9811 48.1 29.283 48.1 29.3836 48.2C29.4843 48.2 29.7862 48.3 29.8868 48.4C29.9874 48.5 30.1887 48.5 30.3899 48.6C30.5912 48.7 30.6918 48.7 30.8931 48.8C31.195 48.9 31.4969 49 31.7987 49.1C31.8994 49.1 32.1006 49.2 32.3019 49.2C32.4025 49.2 32.5031 49.3 32.6038 49.3C32.7044 49.3 32.805 49.3 32.9057 49.4C33.0063 49.4 33.3082 49.5 33.4088 49.5C33.6101 49.5 33.7107 49.6 33.912 49.6C34.2138 49.6 34.6164 49.7 34.9182 49.7C35.0189 49.7 35.9245 49.8 35.9245 49.8H36.6289C36.6289 49.8 37.2327 49.7 37.3333 49.7C37.434 49.7 37.5346 49.7 37.6352 49.6C37.7359 49.6 37.8365 49.5 38.0377 49.5C38.1384 49.5 38.5409 49.3 38.7421 49.2C38.8428 49.1 38.9434 49.1 39.044 49C39.1447 49 39.3459 48.8 39.3459 48.8L39.5472 48.6C39.6478 48.6 39.8491 48.2 39.8491 48.2C39.9497 48 40.0503 47.9 40.0503 47.7C40.1509 47.6 40.1509 47.3 40.1509 47.2C40.1509 47.1 40.2516 46.7 40.2516 46.7V46.6L40.5535 46.7ZM9.76101 38.7C9.66038 38.9 9.55975 39 9.35849 39H9.15723C9.0566 39 8.65409 38.9 8.65409 38.9C8.65409 38.8 8.65409 38.8 8.55346 38.7C8.55346 38.7 8.55346 38.6 8.55346 38.5C8.55346 38.4 8.65409 38.2 8.85535 38.1C8.85535 38.1 9.0566 38 9.15723 38L9.35849 37.9C9.45912 37.9 9.66038 37.8 9.86164 37.8L9.96226 38.2C9.86164 38.4 9.86164 38.6 9.76101 38.7ZM10.566 42.6C10.4654 42.8 10.3648 43.1 10.1635 43.2C10.0629 43.3 10.0629 43.3 9.86164 43.4C9.76101 43.4 9.66038 43.4 9.55975 43.4C9.35849 43 9.15723 42.4 9.55975 42.1C9.76101 41.9 9.96227 41.7 10.1635 41.6C10.3648 41.5 10.6667 41.4 10.8679 41.3C10.8679 41.6 10.7673 42.3 10.566 42.6ZM15.2956 38V38.6V38.7V39V39.1V39.8V40.1V40.2V40.3V40.4V40.5V40.6V40.8L14.3899 40V38.2V38H14.4906H14.5912H14.6918H14.7925H14.8931H14.9937H15.0943H15.195H15.2956Z" fill="white"/>
<path d="M32.2013 43.7C32.1006 43.7 32.1006 43.7 32.1006 43.7C32.1006 43.7 32.1006 43.6 32 43.6V43.5C32 43.5 32 43.4 32.1006 43.4C32.6038 43 33.0063 42.6 33.4088 42.3C33.7107 42 34.0126 41.8 34.2138 41.5C34.4151 41.3 34.6164 41.1 34.6164 40.8C34.717 40.6 34.717 40.4 34.717 40.1C34.717 39.9 34.717 39.8 34.717 39.7C34.717 39.6 34.6164 39.4 34.6164 39.3C34.5157 39.2 34.4151 39.1 34.3145 39C34.2138 39 34.0126 39 33.8113 39C33.6101 39 33.5094 39 33.4088 39.1C33.3082 39.1 33.2075 39.2 33.1069 39.3C33.0063 39.4 33.0063 39.4 32.9057 39.5C32.9057 39.6 32.805 39.6 32.805 39.7V39.8V39.9C32.805 39.9 32.805 40 32.9057 40C32.9057 40 33.0063 40 33.1069 40C33.2075 40 33.3082 40 33.3082 40.1C33.3082 40.2 33.4088 40.3 33.4088 40.3C33.4088 40.4 33.4088 40.5 33.3082 40.5C33.2075 40.6 33.1069 40.6 33.0063 40.6C32.9057 40.6 32.805 40.6 32.7044 40.5C32.6038 40.4 32.5031 40.4 32.5031 40.3C32.4025 40.2 32.4025 40.1 32.4025 40.1C32.4025 40 32.4025 39.9 32.4025 39.8C32.4025 39.6 32.4025 39.5 32.5031 39.3C32.6038 39.1 32.7044 39 32.805 38.9C32.9057 38.8 33.1069 38.7 33.3082 38.6C33.5094 38.5 33.8113 38.5 34.0126 38.5C34.3145 38.5 34.5157 38.5 34.8176 38.6C35.0189 38.7 35.2201 38.8 35.3208 38.9C35.4214 39 35.6226 39.2 35.6226 39.4C35.7233 39.6 35.7233 39.8 35.7233 40C35.7233 40.3 35.6226 40.6 35.522 40.8C35.3208 41.1 35.1195 41.3 34.9182 41.5C34.717 41.7 34.4151 41.9 34.1132 42.1C33.8113 42.3 33.5094 42.5 33.3082 42.6C33.3082 42.6 33.2075 42.6 33.2075 42.7C33.2075 42.7 33.2075 42.7 33.3082 42.7H34.9182C35.0189 42.7 35.1195 42.7 35.1195 42.7C35.2201 42.7 35.2201 42.6 35.3208 42.6C35.4214 42.6 35.4214 42.5 35.522 42.4C35.6226 42.3 35.6226 42.2 35.7233 42C35.7233 42 35.7233 41.9 35.8239 41.9H35.9245H36.0252V42C35.9245 42.2 35.9245 42.5 35.8239 42.7C35.7233 42.9 35.7233 43.2 35.7233 43.5H32.2013V43.7Z" fill="white"/>
<path d="M41.8616 41.1C41.8616 41.5 41.761 41.9 41.6604 42.3C41.5598 42.6 41.3585 42.9 41.0566 43.2C40.8553 43.4 40.5535 43.6 40.2516 43.7C39.9497 43.8 39.5472 43.9 39.1447 43.9C38.8428 43.9 38.4403 43.8 38.1384 43.7C37.8365 43.6 37.5346 43.4 37.3333 43.2C37.1321 43 36.9308 42.7 36.8302 42.4C36.7296 42.1 36.6289 41.7 36.6289 41.2C36.6289 40.8 36.7296 40.5 36.8302 40.2C36.9308 39.9 37.1321 39.6 37.3333 39.4C37.5346 39.2 37.8365 39 38.1384 38.9C38.4403 38.8 38.8428 38.7 39.1447 38.7C39.5472 38.7 39.8491 38.8 40.1509 38.9C40.4528 39 40.7547 39.2 40.956 39.4C41.1572 39.6 41.3585 39.9 41.4591 40.2C41.8616 40.3 41.8616 40.7 41.8616 41.1ZM40.8553 41.2C40.8553 40.9 40.8554 40.7 40.7547 40.4C40.6541 40.1 40.6541 39.9 40.5535 39.7C40.4528 39.5 40.2516 39.3 40.1509 39.2C39.9497 39.1 39.7484 39 39.4465 39C39.1447 39 38.9434 39.1 38.7421 39.2C38.5409 39.3 38.3396 39.5 38.239 39.7C38.1384 39.9 38.0377 40.1 37.9371 40.4C37.8365 40.7 37.8365 40.9 37.8365 41.2C37.8365 41.4 37.8365 41.7 37.9371 42C38.0377 42.3 38.0377 42.5 38.1384 42.7C38.239 42.9 38.4403 43.1 38.6415 43.2C38.8428 43.3 39.044 43.4 39.3459 43.4C39.6478 43.4 39.8491 43.3 40.0503 43.2C40.2516 43.1 40.3522 42.9 40.4528 42.7C40.5535 42.5 40.6541 42.3 40.6541 42C40.7547 41.7 40.8553 41.5 40.8553 41.2Z" fill="white"/>
<path d="M42.6667 43.7C42.566 43.7 42.566 43.7 42.566 43.7C42.566 43.7 42.566 43.6 42.4654 43.6V43.5C42.4654 43.5 42.4654 43.4 42.566 43.4C43.0692 43 43.4717 42.6 43.8742 42.3C44.1761 42 44.478 41.8 44.6792 41.5C44.8805 41.3 45.0818 41.1 45.0818 40.8C45.1824 40.6 45.1824 40.4 45.1824 40.1C45.1824 39.9 45.1824 39.8 45.1824 39.7C45.1824 39.6 45.0818 39.4 45.0818 39.3C44.9811 39.2 44.8805 39.1 44.7799 39C44.6792 39 44.478 39 44.3774 39C44.1761 39 44.0755 39 43.9748 39.1C43.8742 39.1 43.7736 39.2 43.673 39.3C43.5723 39.4 43.5723 39.4 43.4717 39.5C43.4717 39.6 43.3711 39.6 43.3711 39.7V39.8V39.9C43.3711 39.9 43.3711 40 43.4717 40C43.4717 40 43.5723 40 43.673 40C43.7736 40 43.8742 40 43.8742 40.1C43.8742 40.2 43.9748 40.3 43.9748 40.3C43.9748 40.4 43.9748 40.5 43.8742 40.5C43.7736 40.6 43.673 40.6 43.5723 40.6C43.4717 40.6 43.3711 40.6 43.2704 40.5C43.1698 40.4 43.0692 40.4 43.0692 40.3C42.9686 40.2 42.9686 40.1 42.9686 40.1C42.9686 40 42.9686 39.9 42.9686 39.8C42.9686 39.6 42.9686 39.5 43.0692 39.3C43.1698 39.1 43.2704 39 43.3711 38.9C43.4717 38.8 43.673 38.7 43.8742 38.6C44.0755 38.5 44.3774 38.5 44.5786 38.5C44.8805 38.5 45.0818 38.5 45.3836 38.6C45.5849 38.7 45.7862 38.8 45.8868 38.9C45.9874 39 46.1887 39.2 46.1887 39.4C46.2893 39.7 46.2893 39.9 46.2893 40C46.2893 40.3 46.1887 40.6 46.088 40.8C45.8868 41.1 45.6855 41.3 45.4843 41.5C45.283 41.7 44.9811 41.9 44.6792 42.1C44.3774 42.3 44.0755 42.5 43.8742 42.6C43.8742 42.6 43.7736 42.6 43.7736 42.7C43.7736 42.7 43.7736 42.7 43.8742 42.7H45.4843C45.5849 42.7 45.6855 42.7 45.6855 42.7C45.7862 42.7 45.7862 42.6 45.8868 42.6C45.9874 42.6 45.9874 42.5 46.088 42.4C46.1887 42.3 46.1887 42.2 46.2893 42C46.2893 42 46.2893 41.9 46.3899 41.9H46.4906H46.5912V42C46.4906 42.2 46.4906 42.5 46.3899 42.7C46.2893 42.9 46.2893 43.2 46.2893 43.5H42.6667V43.7Z" fill="white"/>
<path d="M49.2076 41.9C49.5094 41.9 49.7107 41.9 49.9119 42C50.1132 42.1 50.3145 42.2 50.5157 42.4C50.717 42.6 50.8176 42.7 50.9182 42.9C51.0189 43.1 51.1195 43.3 51.1195 43.6C51.1195 44 51.0189 44.4 50.8176 44.7C50.6164 45 50.4151 45.2 50.2138 45.4C49.912 45.6 49.7107 45.7 49.4088 45.8C49.1069 45.9 48.805 45.9 48.5031 45.9C48.3019 45.9 48.1006 45.9 48 45.9C47.7987 45.9 47.6981 45.8 47.4969 45.8C47.3962 45.7 47.195 45.7 47.0943 45.6C46.9937 45.5 46.9937 45.4 46.9937 45.2C46.9937 45 46.9937 44.9 47.0943 44.8C47.195 44.7 47.2956 44.7 47.4969 44.7C47.5975 44.7 47.6981 44.7 47.7987 44.8C47.8994 44.9 47.8994 44.9 47.8994 45.1C47.8994 45.2 47.8994 45.2 47.8994 45.3C47.8994 45.3 47.8994 45.4 47.8994 45.5C47.8994 45.5 47.8994 45.6 48 45.6C48.1006 45.6 48.1006 45.7 48.2013 45.7C48.3019 45.7 48.4025 45.7 48.5031 45.8C48.6038 45.8 48.7044 45.8 48.805 45.8C49.3082 45.8 49.6101 45.6 49.8113 45.3C50.0126 45 50.2138 44.6 50.2138 44C50.2138 43.6 50.1132 43.2 49.8113 42.9C49.5094 42.6 49.1069 42.5 48.4025 42.5C48.3019 42.5 48.3019 42.5 48.3019 42.4C48.3019 42.3 48.3019 42.3 48.4025 42.2C48.9057 42 49.3082 41.8 49.5094 41.5C49.7107 41.2 49.9119 40.9 49.9119 40.4C49.9119 40.2 49.9119 40.1 49.9119 40C49.9119 39.9 49.8113 39.7 49.8113 39.6C49.7107 39.5 49.6101 39.4 49.5094 39.3C49.1069 39 48.9057 39 48.805 39C48.6038 39 48.5031 39 48.4025 39.1C48.3019 39.2 48.2013 39.2 48.1006 39.3C48 39.4 48 39.4 47.8994 39.5C47.8994 39.6 47.7987 39.6 47.7987 39.7V39.8V39.9C47.7987 39.9 47.7987 40 47.8994 40C47.8994 40 48 40 48.1006 40C48.2013 40 48.3019 40 48.3019 40.1C48.3019 40.2 48.4025 40.3 48.4025 40.3C48.4025 40.4 48.4025 40.5 48.3019 40.5C48.2013 40.6 48.1006 40.6 48 40.6C47.8994 40.6 47.7987 40.6 47.6981 40.5C47.5975 40.4 47.4969 40.4 47.4969 40.3C47.2956 40.3 47.2956 40.2 47.2956 40.1C47.2956 40 47.2956 39.9 47.2956 39.8C47.2956 39.6 47.2956 39.5 47.3962 39.3C47.4969 39.1 47.5975 39 47.6981 38.9C47.7987 38.8 48 38.7 48.2013 38.6C48.4025 38.5 48.7044 38.5 48.9057 38.5C49.2075 38.5 49.4088 38.5 49.7107 38.6C49.912 38.7 50.1132 38.8 50.2138 38.9C50.3145 39 50.5157 39.2 50.5157 39.4C50.6164 39.6 50.6164 39.8 50.6164 40C50.6164 40.2 50.6164 40.5 50.5157 40.7C50.4151 40.9 50.3145 41.1 50.1132 41.2C50.0126 41.4 49.8113 41.5 49.6101 41.6C49.5094 41.7 49.4088 41.8 49.2076 41.9C49.2076 41.8 49.2076 41.8 49.2076 41.9Z" fill="white"/>
<path d="M73.2579 17.1C73.1572 17.1 72.956 17.2 72.956 17.3V17.4C73.0566 17.4 73.0566 17.4 73.1572 17.4C73.2579 17.4 73.5598 17.2 73.2579 17.1Z" fill="url(#paint0_radial_2_63)"/>
<path d="M73.1572 17C73.1572 17.1 73.6604 16.9 73.761 16.8C73.8616 16.7 73.0566 16.9 73.1572 17Z" fill="url(#paint1_radial_2_63)"/>
<path d="M72.956 17C72.8553 17 72.7547 17 72.7547 17.1C72.7547 17.1 72.7547 17.1 72.6541 17.1C72.2516 17.1 72.2516 17.5 72.5535 17.3C72.6541 17.2 72.7547 17.2 72.8554 17.2C72.956 17.1 73.0566 17 72.956 17Z" fill="url(#paint2_radial_2_63)"/>
<path d="M73.9623 15.8C73.8616 15.7 74.0629 15.7 73.8616 15.5V15.4C73.8616 15.2 73.6604 15.2 73.761 15.1C73.761 15.1 73.761 15 73.8616 15C73.9623 15 74.0629 14.6 73.5597 14.9C73.4591 15 73.4591 15 73.4591 15C73.3585 15 73.2579 14.9 73.2579 14.9C73.0566 15.1 73.1572 15 72.956 15.4C72.7547 15.9 73.0566 15.6 73.0566 15.9C73.0566 16 73.0566 16 73.0566 16.2C73.0566 16.4 73.3585 16.3 73.3585 16.1C73.4591 15.8 73.3585 15.7 73.4591 15.7C73.5598 15.7 73.4591 15.9 73.6604 15.9C73.761 15.9 73.6604 16 73.8616 16C73.9623 16 74.0629 15.8 73.9623 15.8Z" fill="url(#paint3_radial_2_63)"/>
<path d="M72.7547 10.8C72.8553 10.8 72.8553 10.9 72.8553 10.9C72.8553 11 72.956 11 72.956 11C72.956 11 72.8553 11.1 72.956 11.2C72.956 11.2 72.956 11.3 73.0566 11.3C73.2579 11.6 73.3585 11.2 73.2579 11.1C73.2579 11.1 73.2579 11.1 73.2579 11C73.2579 10.9 73.2579 10.9 73.3585 10.9C73.5597 11 73.5597 10.8 73.6604 10.9C73.761 11 73.8616 10.9 73.8616 10.8L73.761 10.6C73.6604 10.6 73.5597 10.5 73.3585 10.6H73.2579C73.0566 10.1 73.2579 10.2 73.2579 10C73.2579 9.9 73.2579 9.8 73.2579 9.8C73.1572 9.7 73.2579 9.5 72.8553 9.5C72.4528 9.5 72.8553 10.2 72.6541 10.3C72.5535 10.3 72.5535 10.4 72.6541 10.4C72.6541 10.5 72.6541 10.7 72.7547 10.8Z" fill="url(#paint4_radial_2_63)"/>
<path d="M54.5409 12.1C54.6415 12.5 55.1447 12.2 54.5409 12.1V12.1Z" fill="url(#paint5_radial_2_63)"/>
<path d="M60.3774 24.8C60.0755 24.8 60.1761 25 60.3774 25C60.5786 25 60.478 24.8 60.3774 24.8Z" fill="url(#paint6_radial_2_63)"/>
<path d="M61.7862 13.8C61.7862 14 61.6855 14.1 61.6855 14.3C61.7862 14.8 61.6855 14.6 61.8868 14.9C61.9874 15 62.2893 15 62.3899 14.7C62.5912 14.3 61.7862 13.5 61.7862 13.8Z" fill="url(#paint7_radial_2_63)"/>
<path d="M53.9371 18.4C53.8365 18.3 53.7358 18.3 53.6352 18.4V18.5C53.6352 18.6 53.5346 18.5 53.434 18.7C53.434 18.7 53.434 18.8 53.3333 18.8C52.8302 18.9 52.8302 18.8 52.8302 19C52.8302 19.3 52.9308 19.3 53.0314 19.6C53.2327 20 52.6289 19.6 53.3333 20.6C53.434 20.7 53.7358 21 54.0377 20.9C54.3396 20.9 54.0377 20.1 54.1384 19.9C54.239 19.5 54.0377 19.3 54.239 19.2C54.3396 19.2 54.3396 19.1 54.239 19.1C54.1384 19 54.239 18.7 53.9371 18.4Z" fill="url(#paint8_radial_2_63)"/>
<path d="M67.1195 16.1C67.3208 16.1 67.3208 16 67.3208 16C66.9182 15.6 66.8176 16 67.1195 16.1Z" fill="url(#paint9_radial_2_63)"/>
<path d="M70.1384 16.3C70.0377 16.3 69.9371 16.3 69.9371 16.5C69.9371 16.7 70.4402 16.4 70.1384 16.3Z" fill="url(#paint10_radial_2_63)"/>
<path d="M72.4528 8.5C72.4528 8.4 72.5535 8.2 72.4528 7.9C72.4528 7.8 72.5535 7.8 72.4528 7.6C72.2516 7.4 72.1509 7.8 72.0503 8.1C72.1509 8.6 72.4528 8.7 72.4528 8.5Z" fill="url(#paint11_radial_2_63)"/>
<path d="M72.4528 15.7C72.4528 15.6 72.3522 15.6 72.4528 15.4C72.6541 15.1 72.6541 15.3 72.6541 14.9C72.6541 14.7 73.0566 14.8 72.956 14.6C72.8553 14.4 72.7547 14.5 72.7547 14.4C72.7547 14.3 72.4528 14.1 72.7547 13.8C72.8553 13.8 72.8553 13.7 72.8553 13.6C72.956 13.5 73.0566 13.4 72.8553 13.4C72.5535 13.3 72.5535 13.4 72.5535 13.3C72.2516 12.9 71.9497 13.7 71.9497 13.8C71.9497 13.9 71.8491 13.9 71.7484 13.9C71.4465 14.2 71.5472 14.1 71.3459 14.4C71.1447 14.7 70.8428 14.5 70.8428 14.9C70.8428 15.1 70.7421 15 70.6415 15C70.5409 15 70.4402 15 70.4402 15.1C70.239 15.4 70.3396 15.5 70.4402 15.8C70.5409 16 70.6415 15.9 70.6415 16C70.6415 16.2 70.5409 16.4 71.044 16.3H71.1446C71.1446 16.5 71.7484 16 71.9497 16.3C72.0503 16.4 72.1509 16.2 72.4528 16.1C72.4528 16.1 72.3522 15.9 72.4528 15.7Z" fill="url(#paint12_radial_2_63)"/>
<path d="M61.283 0C53.7359 0 47.4969 6.1 47.4969 13.7C47.4969 21.3 53.6352 27.4 61.283 27.4C68.8302 27.4 75.0692 21.3 75.0692 13.7C75.0692 6.1 68.9308 0 61.283 0ZM73.2579 19.1L73.1572 19.2C72.8553 19.6 72.0503 19.8 71.7484 20.1C71.6478 20.2 71.4465 20.3 71.3459 20.4C71.1447 20.5 71.2453 20.6 71.044 20.8C70.9434 20.9 70.9434 21 71.044 21.1C71.1447 21.3 70.9434 21.2 70.9434 21.4C71.044 21.7 71.044 21.7 71.044 21.8C70.9434 22.1 71.2453 22 70.7421 22.4C70.7421 22.4 70.7421 22.5 70.8428 22.5C68.4277 25.1 65.0063 26.7 61.1824 26.7C54.9434 26.7 49.7107 22.4 48.4025 16.6C49.1069 18 50.3145 19.7 51.522 20.7C52.0252 21.1 51.8239 20.5 51.8239 20.4C51.8239 20.3 51.8239 20.2 51.6226 19.9C51.522 19.8 51.6226 19.8 51.7233 19.8C51.8239 19.8 51.8239 19.7 51.8239 19.7C51.7233 19.6 51.7233 19.4 51.6226 19.3C51.522 19.2 51.2201 18.8 51.4214 18.8C51.6226 18.8 51.522 18.6 51.8239 18.6C52.0252 18.6 52.1258 18.3 52.0252 18.1C51.9245 18 51.8239 17.5 51.8239 17.3C51.7233 17 51.6226 17.1 51.522 16.6C51.4214 16.2 51.522 16.3 51.4214 16.1C51.2201 15.8 51.4214 15.7 51.522 15.4C51.522 15.4 51.522 15.3 51.6226 15.3C52.0252 15 51.8239 14.9 52.5283 14.5C52.6289 14.5 52.7296 14.4 52.8302 14.3C53.434 13.7 53.434 13.6 53.6352 13.3C53.8365 13.1 53.8365 13 53.9371 12.7L54.0377 12.4C53.9371 12.3 54.1384 12.1 54.0377 12.1C53.8365 12 53.8365 12.1 53.7359 12.1C53.3333 12.1 53.1321 12 53.0314 12H52.9308C52.6289 12 52.4277 12.2 52.327 12C52.1258 11.7 52.1258 11.6 52.2264 11.6C52.2264 11.6 52.2264 11.6 52.2264 11.5C52.2264 11.3 52.327 11.6 52.6289 11.5C52.8302 11.4 52.8302 11.6 53.0314 11.5C53.2327 11.4 53.2327 11.5 53.3333 11.5C53.434 11.5 53.434 11.4 53.5346 11.4C54.5409 11.3 54.1384 11.3 54.239 11.1C54.5409 10.9 54.8428 11.2 55.044 10.9C55.1447 10.7 55.3459 10.9 55.3459 10.7C55.4465 10.5 55.7484 10.8 55.6478 10.4C55.6478 10.3 55.8491 10.2 55.8491 10.2C56.0503 9.8 56.3522 9.8 56.1509 9.6C55.9497 9.4 56.0503 9.3 55.7484 9.1C55.4465 8.9 55.4465 8.7 55.5472 8.5C55.5472 8.4 55.5472 8.3 55.4465 8.4C55.3459 8.6 55.1447 8.7 54.9434 8.8C54.8428 8.9 54.8428 8.8 54.5409 8.8C54.3396 8.8 54.4403 8.5 54.4403 8.4C54.4403 8.3 54.3396 8.1 54.239 8.2C54.239 8.2 54.239 8.2 54.1384 8.3C54.1384 8.2 54.239 8.1 54.1384 7.9C53.7358 6.8 54.239 7.1 54.3396 7.1C54.5409 7.5 54.4403 7.8 54.6415 7.9C54.7421 7.9 54.7421 8 54.7421 8C55.044 8.4 55.3459 8.5 55.5472 8.3H55.6478C55.7484 8.5 55.4465 8.6 56.2516 8.9C56.8553 8.9 56.8553 9 57.2579 9C57.5598 9 57.5598 9 57.761 9C58.4654 9 58.0629 9.1 58.1635 9.1C58.3648 9.3 58.3648 9.5 58.566 9.6C58.6667 9.6 58.6667 9.8 58.8679 9.9C58.9686 10 58.7673 10 58.8679 10.1C58.8679 10.2 59.1698 10.5 59.2704 10.6C59.3711 10.7 59.673 10.7 59.7736 10.5C59.9748 10.2 59.7736 11.3 59.9748 11.6C59.9748 11.6 59.9748 12 60.0755 12.1C60.0755 12.2 60.0755 12.2 60.1761 12.3C60.3774 12.6 60.3774 13.1 60.5786 13.3C60.6792 13.4 60.8805 14.3 61.1824 14.4C61.4843 14.5 61.3836 14.2 61.5849 14.1C61.7862 14 61.7862 14 61.7862 13.8C61.7862 13.7 61.9874 13.8 61.9874 13.6C61.9874 13.4 61.8868 13.4 61.9874 13.2C62.1887 13 62.0881 12.5 61.9874 12.4C61.8868 12.2 62.1887 12.2 62.1887 12.1C62.2893 11.9 62.5912 12 62.5912 11.8C62.5912 11.6 62.9937 11.5 63.195 11.2C63.2956 11.1 63.3962 10.9 63.5975 10.9C64 10.7 63.6981 10.5 63.8994 10.4C64 10.3 64.3019 10.4 64.5031 10.3C64.6038 10.2 64.9057 10.3 64.9057 10.1C64.9057 10 65.0063 10 65.0063 10.1C65.1069 10.3 65.1069 10.6 65.5094 10.8C65.7107 10.9 65.5094 11 65.7107 11.1C66.1132 11.4 65.6101 11.8 65.912 11.9C66.2138 12 66.2138 11.8 66.5157 11.6C66.6164 11.5 66.8176 11.9 66.8176 12.1C66.9182 12.2 66.9182 12.3 67.0189 12.4C67.0189 12.5 67.1195 12.6 67.0189 12.7V12.8C67.1195 12.9 67.1195 13.4 67.0189 13.5C67.1195 13.6 67.0189 13.8 67.1195 13.9C67.3208 14 67.6226 14.4 67.6226 14.5C67.6226 14.9 68.0252 15.4 68.0252 15.4C67.7233 15.4 67.7233 15.2 67.3208 15.1C67.1195 15 67.0189 14.8 66.8176 14.8C66.717 14.8 66.1132 14.7 66.1132 14.8C66.1132 14.9 66.1132 15 66.2138 15C66.3145 15.1 66.4151 15.2 66.5157 15.2C66.8176 15.3 66.8176 15.6 66.9182 15.6C67.3208 15.7 67.0189 16 67.3208 16.1C67.4214 16.1 67.4214 16.2 67.6226 16.4C67.8239 16.6 67.7233 16.7 68.0252 16.9C68.2264 17 68.0252 17.1 68.4277 17.2C68.6289 17.3 68.6289 17.4 68.8302 17.3C68.9308 17.3 69.1321 17.3 69.0314 17.4C68.9308 17.5 69.0314 17.6 69.0314 17.6C69.2327 17.6 69.1321 17.7 69.3333 17.7C69.434 17.7 69.5346 17.7 69.5346 17.7C69.5346 17.7 69.5346 17.7 69.6352 17.7C70.1384 17.5 70.5409 17.7 71.044 17.5C71.1447 17.5 71.5472 17.6 71.4465 17.3C71.4465 17.1 71.1447 17.3 71.044 17.3C71.044 17.2 71.2453 17.2 71.2453 17.1H71.044C70.5409 17.2 70.4403 17.1 70.239 17.3C70.1384 17.4 69.9371 17.4 69.8365 17.3H69.6352C69.434 17.3 69.1321 17.3 69.1321 17.3C69.2327 17.1 69.0315 16.8 69.2327 16.6C69.434 16.5 69.2327 16.4 69.1321 16.3C69.0314 16.1 68.8302 16.2 68.7296 16.3C68.6289 16.4 68.7296 16.2 68.6289 16.2C68.5283 16.1 68.4277 16.1 68.4277 16.1C68.5283 15.8 68.5283 15.9 68.327 15.7C68.2264 15.6 68.7296 15.7 68.6289 15.4C68.5283 15.3 68.327 15.2 68.4277 14.8C68.4277 14.4 67.9245 14.2 67.8239 14.1C67.7233 14 67.522 14.2 67.522 13.9C67.522 13.8 67.522 13.7 67.4214 13.7C67.3208 13.6 67.4214 13.5 67.2201 13.4C66.8176 13.3 67.3208 12.8 67.2201 12.5C67.2201 12.4 67.3208 12.2 67.3208 12.3C67.4214 12.6 67.1195 12.4 67.8239 12.6C68.0252 12.7 67.9245 12.9 68.0252 12.9C68.1258 12.9 68.1258 13 68.2264 13C68.6289 13.1 68.5283 13.1 68.5283 13.4C68.5283 13.5 68.6289 13.5 68.6289 13.4L68.7296 13.3C68.9308 13.1 68.9308 13.2 69.0314 12.9C69.1321 12.7 70.0377 12.6 69.434 11.4C69.1321 10.9 68.8302 11 68.6289 10.7C68.5283 10.5 68.4277 10.6 68.327 10.4C68.2264 10.2 68.4277 10 68.7296 9.6C68.8302 9.4 69.1321 9.5 69.1321 9.5C69.1321 9.6 69.3333 9.8 69.2327 9.8C68.9308 10.1 68.9308 10 69.0314 10.3C69.0314 10.5 69.3333 10.4 69.434 10.3C69.5346 10.2 69.6352 10.1 69.6352 10C69.6352 9.9 69.6352 9.8 69.7359 9.8C69.7359 9.8 69.7358 9.7 69.6352 9.7C69.6352 9.7 69.5346 9.7 69.5346 9.6C69.3333 9.3 69.9371 9.3 70.1384 9C70.239 8.9 70.3396 8.9 70.4403 8.8C70.9434 8.7 71.2453 7.7 71.3459 7.7C71.4465 7.6 71.3459 7.5 71.3459 7.5C71.3459 7.4 71.4465 7 71.4465 6.9C71.5472 6.6 71.4465 6.8 71.4465 6.6C71.4465 6.4 71.3459 6.4 71.4465 6.3C72.4528 7.7 73.1572 9.3 73.4591 11C73.3585 10.9 73.0566 11 73.2579 11.2C73.3585 11.3 73.1572 11.3 73.3585 11.5C73.4591 11.7 73.2579 11.6 73.2579 11.8V11.6C73.2579 11.5 73.1572 11.5 73.1572 11.5C73.1572 11.4 73.0566 11.4 72.956 11.4C72.8553 11.4 72.7547 11.4 72.8553 11.7C72.8553 11.9 73.0566 11.7 73.0566 11.8C73.4591 11.9 73.4591 12 73.5597 12C73.761 12.2 73.761 11.9 73.8616 11.8C73.9623 11.8 74.0629 11.7 74.1635 11.4C74.2641 11.3 74.0629 11.3 74.1635 11.2C74.1635 11.3 74.1635 11.5 74.2642 11.6H74.1635C74.1635 11.8 74.0629 11.8 73.9623 11.9C73.8616 12.1 73.761 11.9 73.6604 12L73.4591 12.3C73.4591 12.5 73.4591 12.6 73.4591 12.6C73.5598 12.6 73.5597 12.5 73.5597 12.4C73.5597 12.3 73.8616 12.2 73.8616 12.3C73.8616 12.5 73.761 12.6 74.1635 12.6H74.2642C74.2642 12.9 74.2642 13.2 74.2642 13.5C74.2642 13.6 74.2642 13.7 74.2642 13.7C74.1635 13.7 74.0629 13.9 73.9623 14C73.5598 14.2 73.4591 14.1 73.2579 14.2C73.1572 14.3 73.0566 14.4 73.1572 14.5C74.1635 14.2 74.0629 14.3 74.2642 13.9C74.2642 13.9 74.2642 13.9 74.2642 13.8C74.2642 14.8 74.0629 15.7 73.8616 16.6C73.761 16.7 73.761 16.7 73.8616 16.8C73.761 17.8 73.5598 18.5 73.2579 19.1ZM52.0252 4.4C52.2264 4.4 52.327 4.4 52.327 4.3V4.2C52.327 4.1 52.4277 4.1 52.4277 4C52.5283 4 52.5283 4.1 52.6289 4.1C52.7296 4.2 52.5283 4.2 52.5283 4.5C52.5283 4.6 52.327 4.8 52.0252 5.2C51.8239 5.5 51.6226 5.4 51.522 5.2C51.522 5.1 51.4214 5.1 51.4214 5.1C51.6226 4.9 51.8239 4.6 52.0252 4.4ZM52.1258 11C52.1258 11.2 52.1258 11.4 51.9245 10.8C51.8239 10.5 51.6226 10.4 51.6226 10.3C51.4214 10.2 51.522 10 51.522 9.9C51.6226 9.3 51.2201 9.3 51.3208 8.7C51.4214 8.5 51.4214 8.2 51.3208 7.9C51.1195 7.5 51.3208 7.7 51.3208 7.3C51.3208 7.2 51.3208 7.1 51.3208 7C51.3208 6.9 51.2201 6.3 51.3208 6.3C51.4214 6.3 51.4214 6.3 51.522 6.3C51.6226 6.4 51.6226 7.4 51.6226 7.5C51.8239 7.9 51.6226 8.2 51.7233 8.6C51.7233 8.8 51.9245 8.9 51.9245 9C52.0252 9.2 51.9245 9.3 52.1258 9.7C52.327 10.4 52.0252 10.4 52.1258 11Z" fill="url(#paint13_radial_2_63)"/>
<path d="M65.5088 12.7C65.5088 12.8 65.5088 12.8 65.5088 12.9C65.4088 12.9 65.5088 13 65.4088 13.1C65.4088 13 65.4088 12.9 65.4088 12.8V12.7C65.4088 12.7 65.5088 12.7 65.5088 12.7C65.5088 12.6 65.5088 12.5 65.5088 12.6C65.6088 12.6 65.5088 12.7 65.5088 12.7Z" fill="url(#paint14_radial_2_63)"/>
<path d="M65.4083 13.3C65.3083 13.4 65.3083 13.4 65.4083 13.4C65.4083 13.4 65.5083 13.4 65.4083 13.3Z" fill="url(#paint15_radial_2_63)"/>
<path d="M65.6101 13.9C65.5094 13.9 65.5094 13.9 65.6101 13.9C65.7107 14 65.7107 14 65.7107 14C65.7107 14 65.7107 14 65.7107 14.1C65.7107 14 65.7107 14 65.6101 13.9C65.6101 13.9 65.6101 13.8 65.6101 13.9Z" fill="url(#paint16_radial_2_63)"/>
<path d="M65.7107 14.2C65.7107 14.1 65.7107 14.2 65.7107 14.2C65.7107 14.3 65.7107 14.3 65.7107 14.3C65.8107 14.3 65.8107 14.3 65.7107 14.2C65.8107 14.2 65.8107 14.2 65.7107 14.2Z" fill="url(#paint17_radial_2_63)"/>
<path d="M59.673 13.9C59.673 14 59.673 14 59.673 14.1C59.773 14.1 59.773 14 59.673 13.9C59.673 13.9 59.773 13.9 59.673 13.9Z" fill="url(#paint18_radial_2_63)"/>
<path d="M0 15.1C0 22.6 6.13837 28.8 13.7862 28.8C17.2075 28.8 20.5283 27.5 23.044 25.2C25.5597 22.9 27.1698 19.8 27.4717 16.4L27.673 14.3H13.3836V17.5H23.9497C23.4465 19.5 22.3396 21.4 20.8302 22.9C18.9182 24.7 16.4025 25.7 13.6855 25.7C7.94969 25.7 3.22013 21 3.22013 15.3C3.22013 9.6 7.94969 4.9 13.6855 4.9C15.4969 4.9 17.4088 5.4 18.9182 6.3C19.7233 6.7 20.4277 7.3 21.0314 7.9L21.6352 8.5L24.0503 6L23.4465 5.4C22.6415 4.6 21.6352 3.8 20.6289 3.3C18.5157 2.1 16.1006 1.4 13.6855 1.4C6.13837 1.4 0 7.5 0 15.1Z" fill="url(#paint19_linear_2_63)"/>
<path d="M30.3899 3.2C29.3836 3.9 28.478 4.7 27.8742 5.8L27.673 6.1L30.088 8.5L30.3899 7.9C30.7924 7.1 31.3962 6.4 32.2013 5.9C33.4088 5.1 35.0189 4.8 36.4277 5.2C38.239 5.7 39.6478 7.2 40.0503 9.1C40.2516 9.8 40.5535 11.2 37.7358 14.5C36.5283 15.9 35.3208 17.3 34.1132 18.7C33.2075 19.7 32.3019 20.7 31.3962 21.8L25.761 28.3H43.2704V25H32.805L33.8113 23.8C34.717 22.8 35.6226 21.8 36.4277 20.8C37.6352 19.4 38.8428 18 40.0503 16.6C41.5597 14.9 42.4654 13.3 42.8679 11.9C43.3711 10.3 43.1698 9.2 42.9686 8.4C42.2641 5.4 39.9497 2.9 37.0314 2.1C36.327 1.9 35.522 1.8 34.8176 1.8C33.3082 1.8 31.6981 2.3 30.3899 3.2Z" fill="url(#paint20_linear_2_63)"/>
<path d="M66.3145 30.9C64.5032 30.9 62.8931 30.4 61.3837 29.4H61.283H61.1824C59.673 30.4 57.9623 30.9 56.2516 30.9C51.2201 30.9 46.6918 27 44.5786 25.1C44.1761 24.7 43.7736 24.4 43.673 24.3L42.6667 23.6L43.8742 23.4C44.3774 23.3 44.7799 23.3 45.283 23.3C46.8931 23.3 48.5031 23.7 49.8113 24.5L50.0126 24.3C49.7107 23.8 49.3082 23.2 49.0063 22.6C48 20.8 47.5975 19.3 47.4969 19.3L47.2956 18.6L48.1006 18.7C48.2013 18.7 50.5157 19.1 53.1321 19.8H53.2327V19.7C53.2327 17.7 53.6352 16.1 53.6352 15.9L53.7359 15.3L54.3396 15.6C54.4403 15.6 56.1509 16.5 58.1635 17.9L58.566 18.2L58.6667 18.1C59.7736 16.3 60.8805 14.9 61.0818 14.6L61.4843 14.2L61.8868 14.6C62.0881 14.9 63.2956 16.3 64.3019 18.1L64.4025 18.2L64.805 17.9C66.8176 16.5 68.5283 15.6 68.6289 15.6L69.2327 15.3L69.3333 15.9C69.3333 16 69.7359 17.6 69.7359 19.7V19.8H69.8365C72.4528 19.1 74.7673 18.7 74.8679 18.7L75.673 18.6L75.4717 19.3C75.4717 19.4 74.9686 20.8 73.9623 22.6C73.6604 23.2 73.2579 23.8 72.956 24.3L73.1572 24.5C74.4654 23.7 76.0755 23.3 77.6855 23.3C78.1887 23.3 78.5912 23.3 79.0943 23.4L80.3019 23.6L79.2956 24.3C79.0943 24.4 78.7925 24.7 78.3899 25.1C75.8742 27 71.3459 30.9 66.3145 30.9Z" fill="white"/>
<path d="M56.3522 24.1C56.2516 23.3 56.3522 22.4 56.5535 21.5C52.6289 19.9 47.7987 19.2 47.7987 19.2C47.7987 19.2 49.7107 25 53.434 27.7C57.1572 30.3 61.1824 28.8 61.1824 28.8C61.1824 28.8 56.8553 28 56.3522 24.1Z" fill="url(#paint21_linear_2_63)"/>
<path d="M61.283 28.8C61.5849 28.7 65.61 27.5 65.61 23.9C65.61 20.2 61.5849 15.4 61.283 15C60.9811 15.4 56.956 20.2 56.956 23.9C56.956 27.5 60.9811 28.7 61.283 28.8Z" fill="url(#paint22_linear_2_63)"/>
<path d="M57.761 18.3C55.7484 16.9 53.9371 16 53.9371 16C53.9371 16 53.5346 17.7 53.5346 19.9C54.5409 20.2 55.6478 20.5 56.7547 21C56.956 20.1 57.3585 19.2 57.761 18.3Z" fill="url(#paint23_linear_2_63)"/>
<path d="M53.434 28.2C52.4277 27.6 51.522 26.8 50.717 26C49.2075 24.4 46.4906 23.5 43.8742 23.9C45.4843 25 53.8365 34.1 61.283 28.8C61.283 28.8 57.3585 30.6 53.434 28.2Z" fill="url(#paint24_linear_2_63)"/>
<path d="M69.1321 27.7C72.8553 25.1 74.7673 19.2 74.7673 19.2C74.7673 19.2 69.9371 19.9 66.0126 21.5C66.2138 22.4 66.3145 23.3 66.2138 24.1C65.7107 27.9 61.283 28.7 61.283 28.7C61.283 28.7 65.4088 30.3 69.1321 27.7Z" fill="url(#paint25_linear_2_63)"/>
<path d="M69.0314 19.9C69.0314 17.7 68.6289 16 68.6289 16C68.6289 16 66.8176 16.9 64.805 18.3C65.2075 19.1 65.5094 20 65.8113 21C66.9182 20.6 67.9245 20.2 69.0314 19.9Z" fill="url(#paint26_linear_2_63)"/>
<path d="M78.6918 23.9C76.0755 23.5 73.3585 24.3 71.8491 26C71.044 26.8 70.1384 27.6 69.1321 28.2C65.1069 30.6 61.283 28.8 61.283 28.8C68.7296 34.1 77.0818 25 78.6918 23.9Z" fill="url(#paint27_linear_2_63)"/>
</g>
<defs>
<radialGradient id="paint0_radial_2_63" cx="0" cy="0" r="1" gradientUnits="userSpaceOnUse" gradientTransform="translate(61.3414 9.80322) scale(12.5088 12.4306)">
<stop stop-color="#BBDCF4"/>
<stop offset="0.3209" stop-color="#67B1E0"/>
<stop offset="0.5517" stop-color="#029CD5"/>
<stop offset="0.6646" stop-color="#0094D2"/>
<stop offset="0.7626" stop-color="#0088C9"/>
<stop offset="0.9119" stop-color="#0079C0"/>
<stop offset="0.9983" stop-color="#0074BC"/>
</radialGradient>
<radialGradient id="paint1_radial_2_63" cx="0" cy="0" r="1" gradientUnits="userSpaceOnUse" gradientTransform="translate(61.3415 9.80298) scale(12.509 12.4307)">
<stop stop-color="#BBDCF4"/>
<stop offset="0.3209" stop-color="#67B1E0"/>
<stop offset="0.5517" stop-color="#029CD5"/>
<stop offset="0.6646" stop-color="#0094D2"/>
<stop offset="0.7626" stop-color="#0088C9"/>
<stop offset="0.9119" stop-color="#0079C0"/>
<stop offset="0.9983" stop-color="#0074BC"/>
</radialGradient>
<radialGradient id="paint2_radial_2_63" cx="0" cy="0" r="1" gradientUnits="userSpaceOnUse" gradientTransform="translate(61.3415 9.80301) scale(12.5089 12.4307)">
<stop stop-color="#BBDCF4"/>
<stop offset="0.3209" stop-color="#67B1E0"/>
<stop offset="0.5517" stop-color="#029CD5"/>
<stop offset="0.6646" stop-color="#0094D2"/>
<stop offset="0.7626" stop-color="#0088C9"/>
<stop offset="0.9119" stop-color="#0079C0"/>
<stop offset="0.9983" stop-color="#0074BC"/>
</radialGradient>
<radialGradient id="paint3_radial_2_63" cx="0" cy="0" r="1" gradientUnits="userSpaceOnUse" gradientTransform="translate(61.3416 9.8031) scale(12.5088 12.4306)">
<stop stop-color="#BBDCF4"/>
<stop offset="0.3209" stop-color="#67B1E0"/>
<stop offset="0.5517" stop-color="#029CD5"/>
<stop offset="0.6646" stop-color="#0094D2"/>
<stop offset="0.7626" stop-color="#0088C9"/>
<stop offset="0.9119" stop-color="#0079C0"/>
<stop offset="0.9983" stop-color="#0074BC"/>
</radialGradient>
<radialGradient id="paint4_radial_2_63" cx="0" cy="0" r="1" gradientUnits="userSpaceOnUse" gradientTransform="translate(61.3414 9.8031) scale(12.5089 12.4307)">
<stop stop-color="#BBDCF4"/>
<stop offset="0.3209" stop-color="#67B1E0"/>
<stop offset="0.5517" stop-color="#029CD5"/>
<stop offset="0.6646" stop-color="#0094D2"/>
<stop offset="0.7626" stop-color="#0088C9"/>
<stop offset="0.9119" stop-color="#0079C0"/>
<stop offset="0.9983" stop-color="#0074BC"/>
</radialGradient>
<radialGradient id="paint5_radial_2_63" cx="0" cy="0" r="1" gradientUnits="userSpaceOnUse" gradientTransform="translate(61.3417 9.8031) scale(12.5089 12.4307)">
<stop stop-color="#BBDCF4"/>
<stop offset="0.3209" stop-color="#67B1E0"/>
<stop offset="0.5517" stop-color="#029CD5"/>
<stop offset="0.6646" stop-color="#0094D2"/>
<stop offset="0.7626" stop-color="#0088C9"/>
<stop offset="0.9119" stop-color="#0079C0"/>
<stop offset="0.9983" stop-color="#0074BC"/>
</radialGradient>
<radialGradient id="paint6_radial_2_63" cx="0" cy="0" r="1" gradientUnits="userSpaceOnUse" gradientTransform="translate(61.3416 9.80375) scale(12.5083 12.4301)">
<stop stop-color="#BBDCF4"/>
<stop offset="0.3209" stop-color="#67B1E0"/>
<stop offset="0.5517" stop-color="#029CD5"/>
<stop offset="0.6646" stop-color="#0094D2"/>
<stop offset="0.7626" stop-color="#0088C9"/>
<stop offset="0.9119" stop-color="#0079C0"/>
<stop offset="0.9983" stop-color="#0074BC"/>
</radialGradient>
<radialGradient id="paint7_radial_2_63" cx="0" cy="0" r="1" gradientUnits="userSpaceOnUse" gradientTransform="translate(61.3416 9.8031) scale(12.5088 12.4306)">
<stop stop-color="#BBDCF4"/>
<stop offset="0.3209" stop-color="#67B1E0"/>
<stop offset="0.5517" stop-color="#029CD5"/>
<stop offset="0.6646" stop-color="#0094D2"/>
<stop offset="0.7626" stop-color="#0088C9"/>
<stop offset="0.9119" stop-color="#0079C0"/>
<stop offset="0.9983" stop-color="#0074BC"/>
</radialGradient>
<radialGradient id="paint8_radial_2_63" cx="0" cy="0" r="1" gradientUnits="userSpaceOnUse" gradientTransform="translate(61.3416 9.8031) scale(12.5088 12.4306)">
<stop stop-color="#BBDCF4"/>
<stop offset="0.3209" stop-color="#67B1E0"/>
<stop offset="0.5517" stop-color="#029CD5"/>
<stop offset="0.6646" stop-color="#0094D2"/>
<stop offset="0.7626" stop-color="#0088C9"/>
<stop offset="0.9119" stop-color="#0079C0"/>
<stop offset="0.9983" stop-color="#0074BC"/>
</radialGradient>
<radialGradient id="paint9_radial_2_63" cx="0" cy="0" r="1" gradientUnits="userSpaceOnUse" gradientTransform="translate(61.3416 9.80299) scale(12.5089 12.4306)">
<stop stop-color="#BBDCF4"/>
<stop offset="0.3209" stop-color="#67B1E0"/>
<stop offset="0.5517" stop-color="#029CD5"/>
<stop offset="0.6646" stop-color="#0094D2"/>
<stop offset="0.7626" stop-color="#0088C9"/>
<stop offset="0.9119" stop-color="#0079C0"/>
<stop offset="0.9983" stop-color="#0074BC"/>
</radialGradient>
<radialGradient id="paint10_radial_2_63" cx="0" cy="0" r="1" gradientUnits="userSpaceOnUse" gradientTransform="translate(61.3419 9.80299) scale(12.5086 12.4305)">
<stop stop-color="#BBDCF4"/>
<stop offset="0.3209" stop-color="#67B1E0"/>
<stop offset="0.5517" stop-color="#029CD5"/>
<stop offset="0.6646" stop-color="#0094D2"/>
<stop offset="0.7626" stop-color="#0088C9"/>
<stop offset="0.9119" stop-color="#0079C0"/>
<stop offset="0.9983" stop-color="#0074BC"/>
</radialGradient>
<radialGradient id="paint11_radial_2_63" cx="0" cy="0" r="1" gradientUnits="userSpaceOnUse" gradientTransform="translate(61.3412 9.8031) scale(12.5092 12.431)">
<stop stop-color="#BBDCF4"/>
<stop offset="0.3209" stop-color="#67B1E0"/>
<stop offset="0.5517" stop-color="#029CD5"/>
<stop offset="0.6646" stop-color="#0094D2"/>
<stop offset="0.7626" stop-color="#0088C9"/>
<stop offset="0.9119" stop-color="#0079C0"/>
<stop offset="0.9983" stop-color="#0074BC"/>
</radialGradient>
<radialGradient id="paint12_radial_2_63" cx="0" cy="0" r="1" gradientUnits="userSpaceOnUse" gradientTransform="translate(61.3416 9.8031) scale(12.5088 12.4306)">
<stop stop-color="#BBDCF4"/>
<stop offset="0.3209" stop-color="#67B1E0"/>
<stop offset="0.5517" stop-color="#029CD5"/>
<stop offset="0.6646" stop-color="#0094D2"/>
<stop offset="0.7626" stop-color="#0088C9"/>
<stop offset="0.9119" stop-color="#0079C0"/>
<stop offset="0.9983" stop-color="#0074BC"/>
</radialGradient>
<radialGradient id="paint13_radial_2_63" cx="0" cy="0" r="1" gradientUnits="userSpaceOnUse" gradientTransform="translate(60.9651 9.3043) scale(10.9707 10.9021)">
<stop stop-color="#B9E5FB"/>
<stop offset="0.324" stop-color="#61B4E5"/>
<stop offset="0.5527" stop-color="#009DD9"/>
<stop offset="0.6646" stop-color="#0095D5"/>
<stop offset="0.7713" stop-color="#0088CB"/>
<stop offset="0.9151" stop-color="#007AC0"/>
<stop offset="0.9983" stop-color="#0075BC"/>
</radialGradient>
<radialGradient id="paint14_radial_2_63" cx="0" cy="0" r="1" gradientUnits="userSpaceOnUse" gradientTransform="translate(61.3671 9.8031) scale(12.4306 12.4307)">
<stop stop-color="#BBDCF4"/>
<stop offset="0.3001" stop-color="#6DC1EA"/>
<stop offset="0.5449" stop-color="#00B1E4"/>
<stop offset="0.6646" stop-color="#00ACE2"/>
<stop offset="0.7131" stop-color="#00A1DA"/>
<stop offset="0.8418" stop-color="#0088C9"/>
<stop offset="0.9411" stop-color="#0079C0"/>
<stop offset="0.9983" stop-color="#0074BC"/>
</radialGradient>
<radialGradient id="paint15_radial_2_63" cx="0" cy="0" r="1" gradientUnits="userSpaceOnUse" gradientTransform="translate(61.3663 9.80352) scale(12.4304 12.4303)">
<stop stop-color="#BBDCF4"/>
<stop offset="0.3001" stop-color="#6DC1EA"/>
<stop offset="0.5449" stop-color="#00B1E4"/>
<stop offset="0.6646" stop-color="#00ACE2"/>
<stop offset="0.7131" stop-color="#00A1DA"/>
<stop offset="0.8418" stop-color="#0088C9"/>
<stop offset="0.9411" stop-color="#0079C0"/>
<stop offset="0.9983" stop-color="#0074BC"/>
</radialGradient>
<radialGradient id="paint16_radial_2_63" cx="0" cy="0" r="1" gradientUnits="userSpaceOnUse" gradientTransform="translate(61.3415 9.80309) scale(12.5091 12.4305)">
<stop stop-color="#BBDCF4"/>
<stop offset="0.3001" stop-color="#6DC1EA"/>
<stop offset="0.5449" stop-color="#00B1E4"/>
<stop offset="0.6646" stop-color="#00ACE2"/>
<stop offset="0.7131" stop-color="#00A1DA"/>
<stop offset="0.8418" stop-color="#0088C9"/>
<stop offset="0.9411" stop-color="#0079C0"/>
<stop offset="0.9983" stop-color="#0074BC"/>
</radialGradient>
<radialGradient id="paint17_radial_2_63" cx="0" cy="0" r="1" gradientUnits="userSpaceOnUse" gradientTransform="translate(61.3689 9.80309) scale(12.4307 12.4307)">
<stop stop-color="#BBDCF4"/>
<stop offset="0.3001" stop-color="#6DC1EA"/>
<stop offset="0.5449" stop-color="#00B1E4"/>
<stop offset="0.6646" stop-color="#00ACE2"/>
<stop offset="0.7131" stop-color="#00A1DA"/>
<stop offset="0.8418" stop-color="#0088C9"/>
<stop offset="0.9411" stop-color="#0079C0"/>
<stop offset="0.9983" stop-color="#0074BC"/>
</radialGradient>
<radialGradient id="paint18_radial_2_63" cx="0" cy="0" r="1" gradientUnits="userSpaceOnUse" gradientTransform="translate(61.3313 9.80299) scale(12.4309 12.4309)">
<stop stop-color="#BBDCF4"/>
<stop offset="0.3001" stop-color="#6DC1EA"/>
<stop offset="0.5449" stop-color="#00B1E4"/>
<stop offset="0.6646" stop-color="#00ACE2"/>
<stop offset="0.7131" stop-color="#00A1DA"/>
<stop offset="0.8418" stop-color="#0088C9"/>
<stop offset="0.9411" stop-color="#0079C0"/>
<stop offset="0.9983" stop-color="#0074BC"/>
</radialGradient>
<linearGradient id="paint19_linear_2_63" x1="13.7919" y1="12.7443" x2="14.053" y2="30.8697" gradientUnits="userSpaceOnUse">
<stop stop-color="#F7941D"/>
<stop offset="0.2321" stop-color="#F7941D"/>
<stop offset="0.3848" stop-color="#C9932F"/>
<stop offset="0.6095" stop-color="#868F3E"/>
<stop offset="0.7941" stop-color="#458D46"/>
<stop offset="0.929" stop-color="#008B4A"/>
<stop offset="1" stop-color="#008A4B"/>
</linearGradient>
<linearGradient id="paint20_linear_2_63" x1="34.4603" y1="12.4467" x2="34.7213" y2="30.572" gradientUnits="userSpaceOnUse">
<stop stop-color="#F7941D"/>
<stop offset="0.2321" stop-color="#F7941D"/>
<stop offset="0.3848" stop-color="#C9932F"/>
<stop offset="0.6095" stop-color="#868F3E"/>
<stop offset="0.7941" stop-color="#458D46"/>
<stop offset="0.929" stop-color="#008B4A"/>
<stop offset="1" stop-color="#008A4B"/>
</linearGradient>
<linearGradient id="paint21_linear_2_63" x1="54.5403" y1="12.6134" x2="54.5403" y2="34.5714" gradientUnits="userSpaceOnUse">
<stop stop-color="#F7941D"/>
<stop offset="0.2321" stop-color="#F7941D"/>
<stop offset="0.3848" stop-color="#C9932F"/>
<stop offset="0.6095" stop-color="#868F3E"/>
<stop offset="0.7941" stop-color="#458D46"/>
<stop offset="0.929" stop-color="#008B4A"/>
<stop offset="1" stop-color="#008A4B"/>
</linearGradient>
<linearGradient id="paint22_linear_2_63" x1="61.2866" y1="12.6134" x2="61.2866" y2="34.5714" gradientUnits="userSpaceOnUse">
<stop stop-color="#F7941D"/>
<stop offset="0.2321" stop-color="#F7941D"/>
<stop offset="0.3848" stop-color="#C9932F"/>
<stop offset="0.6095" stop-color="#868F3E"/>
<stop offset="0.7941" stop-color="#458D46"/>
<stop offset="0.929" stop-color="#008B4A"/>
<stop offset="1" stop-color="#008A4B"/>
</linearGradient>
<linearGradient id="paint23_linear_2_63" x1="55.6447" y1="12.6134" x2="55.6447" y2="34.5714" gradientUnits="userSpaceOnUse">
<stop stop-color="#F7941D"/>
<stop offset="0.2321" stop-color="#F7941D"/>
<stop offset="0.3848" stop-color="#C9932F"/>
<stop offset="0.6095" stop-color="#868F3E"/>
<stop offset="0.7941" stop-color="#458D46"/>
<stop offset="0.929" stop-color="#008B4A"/>
<stop offset="1" stop-color="#008A4B"/>
</linearGradient>
<linearGradient id="paint24_linear_2_63" x1="52.5672" y1="12.6134" x2="52.5672" y2="34.5715" gradientUnits="userSpaceOnUse">
<stop stop-color="#F7941D"/>
<stop offset="0.2321" stop-color="#F7941D"/>
<stop offset="0.3848" stop-color="#C9932F"/>
<stop offset="0.6095" stop-color="#868F3E"/>
<stop offset="0.7941" stop-color="#458D46"/>
<stop offset="0.929" stop-color="#008B4A"/>
<stop offset="1" stop-color="#008A4B"/>
</linearGradient>
<linearGradient id="paint25_linear_2_63" x1="68.0331" y1="12.6134" x2="68.0331" y2="34.5714" gradientUnits="userSpaceOnUse">
<stop stop-color="#F7941D"/>
<stop offset="0.2321" stop-color="#F7941D"/>
<stop offset="0.3848" stop-color="#C9932F"/>
<stop offset="0.6095" stop-color="#868F3E"/>
<stop offset="0.7941" stop-color="#458D46"/>
<stop offset="0.929" stop-color="#008B4A"/>
<stop offset="1" stop-color="#008A4B"/>
</linearGradient>
<linearGradient id="paint26_linear_2_63" x1="66.9287" y1="12.6134" x2="66.9287" y2="34.5714" gradientUnits="userSpaceOnUse">
<stop stop-color="#F7941D"/>
<stop offset="0.2321" stop-color="#F7941D"/>
<stop offset="0.3848" stop-color="#C9932F"/>
<stop offset="0.6095" stop-color="#868F3E"/>
<stop offset="0.7941" stop-color="#458D46"/>
<stop offset="0.929" stop-color="#008B4A"/>
<stop offset="1" stop-color="#008A4B"/>
</linearGradient>
<linearGradient id="paint27_linear_2_63" x1="70.0061" y1="12.6134" x2="70.0061" y2="34.5715" gradientUnits="userSpaceOnUse">
<stop stop-color="#F7941D"/>
<stop offset="0.2321" stop-color="#F7941D"/>
<stop offset="0.3848" stop-color="#C9932F"/>
<stop offset="0.6095" stop-color="#868F3E"/>
<stop offset="0.7941" stop-color="#458D46"/>
<stop offset="0.929" stop-color="#008B4A"/>
<stop offset="1" stop-color="#008A4B"/>
</linearGradient>
<clipPath id="clip0_2_63">
<rect width="80" height="50" fill="white"/>
</clipPath>
</defs>
</svg>
